<?xml version="1.0" encoding="utf-8"?>
<!-- Generated by IcoMoon.io -->
<!DOCTYPE svg PUBLIC "-//W3C//DTD SVG 1.1//EN" "http://www.w3.org/Graphics/SVG/1.1/DTD/svg11.dtd">
<svg version="1.1" xmlns="http://www.w3.org/2000/svg" xmlns:xlink="http://www.w3.org/1999/xlink" width="25" height="25" viewBox="0 0 25 25">
<g id="icomoon-ignore">
	<line stroke-width="1" x1="" y1="" x2="" y2="" stroke="#449FDB" opacity=""></line>
</g>
	<path d="M0 20.466v-15.932q0-1.13 0.809-1.939t1.939-0.809h15.932q1.13 0 1.939 0.809t0.809 1.939v15.932q0 1.13-0.809 1.939t-1.939 0.809h-15.932q-1.13 0-1.939-0.809t-0.809-1.939zM2.386 19.894q0 0.363 0.244 0.607t0.607 0.244h14.914q0.349 0 0.6-0.244t0.251-0.607v-9.040h-1.883q0.279 0.879 0.279 1.828 0 1.758-0.893 3.244t-2.427 2.351-3.348 0.865q-2.748 0-4.701-1.89t-1.953-4.569q0-0.949 0.279-1.828h-1.967v9.040zM6.431 12.458q0 1.73 1.263 2.951t3.034 1.221q1.786 0 3.048-1.221t1.263-2.951-1.263-2.951-3.048-1.221q-1.772 0-3.034 1.221t-1.263 2.951zM14.648 7.436q0 0.405 0.279 0.684t0.684 0.279h2.427q0.405 0 0.684-0.279t0.279-0.684v-2.302q0-0.391-0.279-0.677t-0.684-0.286h-2.427q-0.405 0-0.684 0.286t-0.279 0.677v2.302z" fill="#ffffff"></path>
</svg>
