<?xml version="1.0" encoding="utf-8"?>
<!-- Generated by IcoMoon.io -->
<!DOCTYPE svg PUBLIC "-//W3C//DTD SVG 1.1//EN" "http://www.w3.org/Graphics/SVG/1.1/DTD/svg11.dtd">
<svg version="1.1" xmlns="http://www.w3.org/2000/svg" xmlns:xlink="http://www.w3.org/1999/xlink" width="23" height="25" viewBox="0 0 23 25">
<g id="icomoon-ignore">
	<line stroke-width="1" x1="" y1="" x2="" y2="" stroke="#449FDB" opacity=""></line>
</g>
	<path d="M0.614 19.406q0.488 0.056 1.088 0.056 3.139 0 5.594-1.925-1.465-0.028-2.623-0.9t-1.59-2.225q0.46 0.070 0.851 0.070 0.6 0 1.186-0.153-1.563-0.321-2.588-1.556t-1.025-2.867v-0.056q0.949 0.53 2.037 0.572-0.921-0.614-1.465-1.604t-0.544-2.148q0-1.228 0.614-2.274 1.688 2.079 4.109 3.327t5.183 1.388q-0.112-0.53-0.112-1.032 0-1.869 1.318-3.188t3.188-1.318q1.953 0 3.292 1.423 1.521-0.293 2.86-1.088-0.516 1.604-1.981 2.483 1.297-0.14 2.595-0.698-0.935 1.367-2.26 2.33 0.014 0.195 0.014 0.586 0 1.814-0.53 3.62t-1.611 3.467-2.574 2.937-3.599 2.037-4.506 0.76q-3.781 0-6.92-2.023z" fill="#ffffff"></path>
</svg>
