<?xml version="1.0" encoding="utf-8"?>
<!-- Generated by IcoMoon.io -->
<!DOCTYPE svg PUBLIC "-//W3C//DTD SVG 1.1//EN" "http://www.w3.org/Graphics/SVG/1.1/DTD/svg11.dtd">
<svg version="1.1" xmlns="http://www.w3.org/2000/svg" xmlns:xlink="http://www.w3.org/1999/xlink" width="25" height="25" viewBox="0 0 25 25">
<g id="icomoon-ignore">
	<line stroke-width="1" x1="" y1="" x2="" y2="" stroke="#449FDB" opacity=""></line>
</g>
	<path d="M0.377 17.801q0-3.265 0.363-4.883 0.195-0.823 0.809-1.381t1.437-0.656q2.553-0.279 7.729-0.279t7.743 0.279q0.809 0.098 1.43 0.656t0.802 1.381q0.363 1.563 0.363 4.883 0 3.265-0.363 4.883-0.195 0.823-0.809 1.381t-1.423 0.642q-2.567 0.293-7.743 0.293t-7.743-0.293q-0.809-0.084-1.43-0.642t-0.802-1.381q-0.363-1.563-0.363-4.883zM1.925 14.328h1.465v7.938h1.395v-7.938h1.493v-1.311h-4.353v1.311zM3.711 0h1.479l0.991 3.669 0.949-3.669h1.423l-1.688 5.566v3.781h-1.395v-3.781q-0.195-1.032-0.851-2.958-0.516-1.437-0.907-2.609zM6.459 20.829q0 0.684 0.112 1.018 0.167 0.516 0.809 0.516 0.67 0 1.423-0.851v0.753h1.242v-6.892h-1.242v5.273q-0.419 0.586-0.795 0.586-0.251 0-0.293-0.293-0.014-0.042-0.014-0.488v-5.078h-1.242v5.455zM8.566 7.087v-2.441q0-1.116 0.391-1.632 0.53-0.711 1.465-0.711 0.963 0 1.479 0.711 0.391 0.516 0.391 1.632v2.441q0 1.13-0.391 1.646-0.516 0.711-1.479 0.711-0.935 0-1.465-0.711-0.391-0.53-0.391-1.646zM9.821 7.324q0 0.977 0.6 0.977t0.6-0.977v-2.93q0-0.963-0.6-0.963t-0.6 0.963v2.93zM11.133 22.266h1.242v-0.67q0.628 0.767 1.297 0.767 0.753 0 0.991-0.767 0.126-0.377 0.126-1.395v-2.748q0-1.018-0.126-1.381-0.237-0.781-0.991-0.781-0.698 0-1.297 0.753v-3.027h-1.242v9.249zM12.374 20.926v-4.199q0.307-0.307 0.628-0.307 0.544 0 0.544 0.935v2.944q0 0.935-0.544 0.935-0.321 0-0.628-0.307zM13.323 7.882v-5.497h1.27v5.12q0 0.46 0.014 0.488 0.042 0.307 0.293 0.307 0.377 0 0.795-0.6v-5.315h1.27v6.961h-1.27v-0.767q-0.739 0.865-1.437 0.865-0.642 0-0.823-0.516-0.112-0.335-0.112-1.046zM15.765 20.033q0 1.102 0.405 1.618 0.544 0.711 1.507 0.711 1.004 0 1.507-0.739 0.251-0.377 0.293-0.753 0.028-0.126 0.028-0.809v-0.181h-1.27q0 0.711-0.028 0.851-0.098 0.502-0.558 0.502-0.642 0-0.642-0.963v-1.214h2.497v-1.437q0-1.102-0.377-1.618-0.544-0.711-1.479-0.711-0.949 0-1.493 0.711-0.391 0.516-0.391 1.618v2.414zM17.006 18.011v-0.642q0-0.949 0.628-0.949t0.628 0.949v0.642h-1.256z" fill="#ffffff"></path>
</svg>
